<svg width="831" height="905" viewBox="0 0 831 905" fill="none" xmlns="http://www.w3.org/2000/svg">
<path d="M604.043 120.528V18.8548C604.043 8.43312 595.61 0 585.188 0H472.063C464.809 0 458.181 4.16088 455.05 10.7168L424.155 75.3253C423.437 75.3253 422.7 75.343 422 75.343L415.501 75.4173C186.783 75.4173 0.708374 261.492 0.708374 490.21C0.708374 561.059 19.1212 631.248 53.939 693.186C57.3822 699.298 64.0849 702.962 71.0067 702.778C78.0399 702.557 84.3555 698.434 87.394 692.081L129.89 603.223C132.025 598.749 132.32 593.593 130.7 588.916C119.506 556.621 113.833 523.405 113.833 490.208C113.833 340.314 223.257 215.074 368.365 192.003L40.2579 878.007C37.4599 883.844 37.8646 890.713 41.3256 896.199C44.7688 901.686 50.7892 905 57.2709 905H170.396C177.945 905 184.757 900.507 187.722 893.566L295.949 641.04H472.063V659.895C472.063 667.149 476.224 673.741 482.743 676.891C489.297 680.058 497.03 679.137 502.702 674.626L596.973 599.209C601.446 595.619 604.043 590.205 604.043 584.48C604.043 578.753 601.446 573.341 596.973 569.751L502.702 494.333C497.013 489.785 489.225 488.884 482.743 492.069C476.224 495.217 472.063 501.808 472.063 509.064V527.919H350.396L472.063 257.533V433.645C472.063 439.372 474.66 444.785 479.133 448.374L573.404 523.792C579.039 528.322 586.827 529.186 593.363 526.056C599.882 522.908 604.043 516.317 604.043 509.061V255.268C675.464 312.568 717.168 398.092 717.168 490.21C717.168 585.222 672.91 669.985 604.043 725.322V659.897C604.043 652.643 599.882 646.052 593.363 642.902C586.809 639.754 579.056 640.637 573.404 645.166L479.133 720.583C472.892 725.591 470.479 734.006 473.131 741.556C475.782 749.105 482.907 754.167 490.918 754.167H561.22C517.985 778.132 468.337 791.875 415.501 791.875C376.54 791.875 338.353 784.38 302.008 769.596C292.507 765.803 281.626 770.205 277.575 779.65L247.856 849.01C245.868 853.65 245.813 858.898 247.727 863.556C249.642 868.233 253.343 871.952 258.02 873.866C308.267 894.524 361.259 905 415.501 905C644.218 905 830.293 718.925 830.293 490.208C830.293 335.324 741.877 191.524 604.043 120.528Z" fill="#3C3C3C" fill-opacity="0.2"/>
</svg>
